<?xml version="1.0" encoding="UTF-8"?>
<!DOCTYPE svg PUBLIC "-//W3C//DTD SVG 1.1//EN" "http://www.w3.org/Graphics/SVG/1.1/DTD/svg11.dtd">
<svg version="1.1" xmlns="http://www.w3.org/2000/svg" xmlns:xlink="http://www.w3.org/1999/xlink" x="0" y="0" width="203.006" height="102.653" viewBox="0, 0, 203.006, 102.653">
  <g id="Layer_1" transform="translate(0, -0)">
    <path d="M40.761,70.891 C38.416,69.643 35.766,68.764 32.886,68.278 C30.057,67.802 27.179,67.561 24.332,67.561 C22.005,67.561 19.651,67.36 17.334,66.964 C15.078,66.58 13.035,65.872 11.258,64.86 C9.529,63.876 8.099,62.499 7.006,60.765 C5.928,59.059 5.382,56.797 5.382,54.068 C5.434,51.658 5.994,49.596 7.048,47.939 C8.116,46.255 9.512,44.887 11.195,43.872 C12.921,42.831 14.913,42.066 17.116,41.598 C20.867,40.802 24.829,40.653 28.865,41.216 C30.44,41.438 31.998,41.831 33.495,42.384 C34.965,42.929 36.347,43.676 37.601,44.601 C38.837,45.516 39.929,46.664 40.847,48.012 L41.361,48.767 L45.149,47.173 L44.345,46.038 C43.314,44.582 42.172,43.271 40.95,42.139 C39.703,40.988 38.238,40.009 36.594,39.233 C34.971,38.468 33.114,37.879 31.072,37.482 C29.051,37.09 26.695,36.892 24.069,36.892 C21.55,36.892 18.949,37.18 16.339,37.75 C13.69,38.33 11.233,39.288 9.038,40.599 C6.796,41.939 4.948,43.724 3.545,45.905 C2.12,48.124 1.396,50.862 1.396,54.044 C1.396,57.384 2.067,60.227 3.389,62.493 C4.703,64.745 6.465,66.57 8.626,67.916 C10.742,69.236 13.211,70.185 15.964,70.736 C18.654,71.274 21.469,71.547 24.332,71.547 C26.608,71.547 29.018,71.719 31.496,72.062 C33.907,72.395 36.151,73.067 38.165,74.059 C40.127,75.028 41.762,76.375 43.022,78.064 C44.241,79.699 44.86,81.907 44.86,84.626 C44.86,87.068 44.264,89.15 43.091,90.819 C41.879,92.543 40.305,93.966 38.412,95.048 C36.478,96.153 34.289,96.967 31.902,97.466 C29.477,97.974 27.077,98.231 24.77,98.231 C20.897,98.231 17.07,97.491 13.396,96.031 C9.738,94.58 6.494,92.399 3.756,89.549 L3.021,88.784 L-0,91.402 L0.848,92.25 C3.551,94.955 6.908,97.31 10.823,99.252 C14.786,101.219 19.479,102.216 24.77,102.216 C27.286,102.216 29.956,101.928 32.708,101.361 C35.498,100.784 38.116,99.799 40.488,98.43 C42.898,97.04 44.903,95.221 46.45,93.024 C48.039,90.767 48.845,87.943 48.845,84.626 C48.845,81.265 48.09,78.419 46.6,76.167 C45.129,73.947 43.165,72.171 40.761,70.891" fill="#201F26"/>
    <path d="M76.39,98.669 C73.658,98.669 71.16,98.105 68.964,96.993 C66.739,95.868 64.775,94.336 63.125,92.437 C61.466,90.53 60.148,88.3 59.208,85.808 C58.261,83.305 57.724,80.681 57.615,78.054 C57.615,75.625 58.065,73.143 58.951,70.676 C59.836,68.217 61.125,65.974 62.784,64.01 C64.438,62.053 66.451,60.432 68.768,59.19 C71.046,57.97 73.61,57.351 76.39,57.351 C79.004,57.351 81.473,57.93 83.728,59.07 C86.014,60.227 88.025,61.777 89.706,63.677 C91.391,65.585 92.737,67.816 93.708,70.309 C94.675,72.799 95.165,75.405 95.165,78.054 C95.165,80.48 94.715,82.963 93.83,85.431 C92.943,87.895 91.654,90.137 89.996,92.099 C88.345,94.052 86.335,95.657 84.021,96.869 C81.742,98.064 79.175,98.669 76.39,98.669 M92.967,61.292 C90.985,58.976 88.576,57.06 85.805,55.598 C82.996,54.116 79.828,53.366 76.39,53.366 C73.258,53.366 70.266,54.037 67.497,55.359 C64.748,56.673 62.317,58.485 60.272,60.743 C58.235,62.992 56.602,65.641 55.418,68.616 C54.232,71.595 53.63,74.771 53.63,78.054 C53.63,81.157 54.185,84.194 55.28,87.081 C56.373,89.966 57.929,92.584 59.905,94.865 C61.89,97.156 64.304,99.029 67.08,100.431 C69.877,101.845 73.003,102.593 76.37,102.654 L76.391,102.654 L76.412,102.654 C79.598,102.593 82.615,101.876 85.379,100.526 C88.123,99.186 90.551,97.36 92.596,95.102 C94.633,92.852 96.252,90.232 97.406,87.315 C98.563,84.391 99.15,81.275 99.15,78.054 C99.15,75.137 98.611,72.164 97.55,69.219 C96.487,66.274 94.945,63.607 92.967,61.292" fill="#201F26"/>
    <path d="M119.783,97.563 C119.113,97.73 118.523,97.857 118.031,97.939 C117.513,98.025 116.951,98.112 116.346,98.198 C115.789,98.277 115.238,98.318 114.708,98.318 C113.371,98.318 112.387,97.875 111.698,96.963 C110.937,95.959 110.567,94.962 110.567,93.914 L110.567,35.577 L106.582,35.577 L106.582,93.914 C106.582,96.103 107.273,98.04 108.637,99.668 C110.05,101.359 112.063,102.215 114.62,102.215 C115.422,102.215 116.218,102.168 116.987,102.076 C117.729,101.987 118.396,101.898 118.993,101.809 C119.603,101.717 120.309,101.579 121.093,101.399 L122.444,101.087 L120.67,97.341 z" fill="#201F26"/>
    <path d="M136.978,57.381 C134.905,58.838 133.074,60.688 131.507,62.903 L131.507,54.067 L127.522,54.067 L127.522,101.778 L131.507,101.778 L131.507,72.074 C132.059,70.128 132.819,68.303 133.768,66.648 C134.725,64.981 135.916,63.513 137.306,62.286 C138.696,61.06 140.314,60.065 142.117,59.328 C143.915,58.592 145.944,58.162 148.148,58.051 L149.208,57.998 L149.208,54.067 L148.092,54.067 C143.845,54.067 140.106,55.182 136.978,57.381" fill="#201F26"/>
    <path d="M193.911,10.613 L160.911,46.29 L202.385,27.156 C201.158,20.826 198.154,15.134 193.911,10.613" fill="#C7402B"/>
    <path d="M169.427,0 C164.855,0 160.499,0.917 156.527,2.572 L152.099,39.886 L174.226,0.347 C172.658,0.122 171.057,0 169.427,0" fill="#C7402B"/>
    <path d="M202.713,29.211 L163.415,51.203 L200.285,46.828 C202.033,42.763 203.005,38.285 203.005,33.579 C203.005,32.097 202.899,30.642 202.713,29.211" fill="#C7402B"/>
    <path d="M188.225,61.406 C192.616,58.434 196.262,54.448 198.837,49.787 L164.278,56.65 z" fill="#C7402B"/>
    <path d="M176.249,0.695 L157.012,42.39 L192.697,9.384 C188.222,5.079 182.562,1.998 176.249,0.695" fill="#C7402B"/>
    <path d="M172.233,67.032 C175.951,66.724 179.497,65.815 182.773,64.394 L163.415,62.097 z" fill="#C7402B"/>
    <path d="M138.819,19.775 C137.309,23.118 136.33,26.749 135.99,30.567 L141.205,39.887 z" fill="#C7402B"/>
    <path d="M153.617,3.953 C148.879,6.487 144.823,10.123 141.785,14.52 L146.652,39.024 z" fill="#C7402B"/>
  </g>
</svg>
